<svg width="1000" height="300" viewBox="0 0 1000 300" fill="none" xmlns="http://www.w3.org/2000/svg">
<rect width="1000" height="300" fill="black"/>
<path d="M147.207 194H130.449V126.793H105.195V109.977H172.402V126.793H147.207V194ZM230.41 162.066C230.41 166.754 229.57 171.129 227.891 175.191C226.211 179.215 223.926 182.711 221.035 185.68C218.145 188.609 214.746 190.934 210.84 192.652C206.973 194.332 202.812 195.172 198.359 195.172C193.945 195.172 189.785 194.332 185.879 192.652C182.012 190.934 178.613 188.609 175.684 185.68C172.793 182.711 170.508 179.215 168.828 175.191C167.148 171.129 166.309 166.754 166.309 162.066C166.309 157.301 167.148 152.887 168.828 148.824C170.508 144.762 172.793 141.266 175.684 138.336C178.613 135.367 182.012 133.043 185.879 131.363C189.785 129.684 193.945 128.844 198.359 128.844C202.812 128.844 206.973 129.645 210.84 131.246C214.746 132.809 218.145 135.055 221.035 137.984C223.926 140.875 226.211 144.371 227.891 148.473C229.57 152.535 230.41 157.066 230.41 162.066ZM214.297 162.066C214.297 159.488 213.867 157.164 213.008 155.094C212.188 152.984 211.055 151.188 209.609 149.703C208.164 148.18 206.465 147.027 204.512 146.246C202.598 145.426 200.547 145.016 198.359 145.016C196.172 145.016 194.102 145.426 192.148 146.246C190.234 147.027 188.555 148.18 187.109 149.703C185.703 151.188 184.59 152.984 183.77 155.094C182.949 157.164 182.539 159.488 182.539 162.066C182.539 164.488 182.949 166.734 183.77 168.805C184.59 170.875 185.703 172.672 187.109 174.195C188.555 175.719 190.234 176.93 192.148 177.828C194.102 178.688 196.172 179.117 198.359 179.117C200.547 179.117 202.598 178.707 204.512 177.887C206.465 177.066 208.164 175.914 209.609 174.43C211.055 172.945 212.188 171.148 213.008 169.039C213.867 166.93 214.297 164.605 214.297 162.066ZM255.371 194H239.258V106.285H255.371V161.598L279.219 131.363H297.617L276.816 157.496L297.617 194H279.219L266.504 171.207L255.371 185.973V194ZM326.914 178.648C327.539 178.844 328.164 178.98 328.789 179.059C329.414 179.098 330.039 179.117 330.664 179.117C332.227 179.117 333.73 178.902 335.176 178.473C336.621 178.043 337.969 177.438 339.219 176.656C340.508 175.836 341.641 174.859 342.617 173.727C343.633 172.555 344.453 171.266 345.078 169.859L356.797 181.637C355.312 183.746 353.594 185.641 351.641 187.32C349.727 189 347.637 190.426 345.371 191.598C343.145 192.77 340.781 193.648 338.281 194.234C335.82 194.859 333.281 195.172 330.664 195.172C326.25 195.172 322.09 194.352 318.184 192.711C314.316 191.07 310.918 188.785 307.988 185.855C305.098 182.926 302.812 179.449 301.133 175.426C299.453 171.363 298.613 166.91 298.613 162.066C298.613 157.105 299.453 152.574 301.133 148.473C302.812 144.371 305.098 140.875 307.988 137.984C310.918 135.094 314.316 132.848 318.184 131.246C322.09 129.645 326.25 128.844 330.664 128.844C333.281 128.844 335.84 129.156 338.34 129.781C340.84 130.406 343.203 131.305 345.43 132.477C347.695 133.648 349.805 135.094 351.758 136.812C353.711 138.492 355.43 140.387 356.914 142.496L326.914 178.648ZM335.117 145.66C334.375 145.387 333.633 145.211 332.891 145.133C332.188 145.055 331.445 145.016 330.664 145.016C328.477 145.016 326.406 145.426 324.453 146.246C322.539 147.027 320.859 148.16 319.414 149.645C318.008 151.129 316.895 152.926 316.074 155.035C315.254 157.105 314.844 159.449 314.844 162.066C314.844 162.652 314.863 163.316 314.902 164.059C314.98 164.801 315.078 165.562 315.195 166.344C315.352 167.086 315.527 167.809 315.723 168.512C315.918 169.215 316.172 169.84 316.484 170.387L335.117 145.66ZM380.996 194H365V131.246H368.867L374.141 137.34C376.719 134.996 379.629 133.199 382.871 131.949C386.152 130.66 389.57 130.016 393.125 130.016C396.953 130.016 400.566 130.758 403.965 132.242C407.363 133.688 410.332 135.699 412.871 138.277C415.41 140.816 417.402 143.805 418.848 147.242C420.332 150.641 421.074 154.273 421.074 158.141V194H405.078V158.141C405.078 156.5 404.766 154.957 404.141 153.512C403.516 152.027 402.656 150.738 401.562 149.645C400.469 148.551 399.199 147.691 397.754 147.066C396.309 146.441 394.766 146.129 393.125 146.129C391.445 146.129 389.863 146.441 388.379 147.066C386.895 147.691 385.605 148.551 384.512 149.645C383.418 150.738 382.559 152.027 381.934 153.512C381.309 154.957 380.996 156.5 380.996 158.141V194ZM526.66 194H467.832V109.977H484.648V177.184H526.66V194ZM592.871 194H589.004L582.793 185.387C581.27 186.754 579.648 188.043 577.93 189.254C576.25 190.426 574.473 191.461 572.598 192.359C570.723 193.219 568.789 193.902 566.797 194.41C564.844 194.918 562.852 195.172 560.82 195.172C556.406 195.172 552.246 194.43 548.34 192.945C544.473 191.461 541.074 189.312 538.145 186.5C535.254 183.648 532.969 180.172 531.289 176.07C529.609 171.969 528.77 167.301 528.77 162.066C528.77 157.184 529.609 152.711 531.289 148.648C532.969 144.547 535.254 141.031 538.145 138.102C541.074 135.172 544.473 132.906 548.34 131.305C552.246 129.664 556.406 128.844 560.82 128.844C562.852 128.844 564.863 129.098 566.855 129.605C568.848 130.113 570.781 130.816 572.656 131.715C574.531 132.613 576.309 133.668 577.988 134.879C579.707 136.09 581.309 137.398 582.793 138.805L589.004 131.363H592.871V194ZM576.758 162.066C576.758 159.879 576.328 157.77 575.469 155.738C574.648 153.668 573.516 151.852 572.07 150.289C570.625 148.688 568.926 147.418 566.973 146.48C565.059 145.504 563.008 145.016 560.82 145.016C558.633 145.016 556.562 145.387 554.609 146.129C552.695 146.871 551.016 147.965 549.57 149.41C548.164 150.855 547.051 152.652 546.23 154.801C545.41 156.91 545 159.332 545 162.066C545 164.801 545.41 167.242 546.23 169.391C547.051 171.5 548.164 173.277 549.57 174.723C551.016 176.168 552.695 177.262 554.609 178.004C556.562 178.746 558.633 179.117 560.82 179.117C563.008 179.117 565.059 178.648 566.973 177.711C568.926 176.734 570.625 175.465 572.07 173.902C573.516 172.301 574.648 170.484 575.469 168.453C576.328 166.383 576.758 164.254 576.758 162.066ZM651.23 186.676C649.941 187.848 648.555 188.961 647.07 190.016C645.625 191.031 644.102 191.93 642.5 192.711C640.898 193.453 639.238 194.039 637.52 194.469C635.84 194.938 634.121 195.172 632.363 195.172C628.496 195.172 624.863 194.488 621.465 193.121C618.066 191.754 615.078 189.82 612.5 187.32C609.961 184.781 607.949 181.715 606.465 178.121C605.02 174.488 604.297 170.426 604.297 165.934V131.246H620.234V165.934C620.234 168.043 620.547 169.938 621.172 171.617C621.836 173.258 622.715 174.645 623.809 175.777C624.902 176.91 626.172 177.77 627.617 178.355C629.102 178.941 630.684 179.234 632.363 179.234C634.004 179.234 635.547 178.863 636.992 178.121C638.477 177.34 639.766 176.324 640.859 175.074C641.953 173.824 642.812 172.418 643.438 170.855C644.062 169.254 644.375 167.613 644.375 165.934V131.246H660.371V194H656.504L651.23 186.676ZM688.613 194H672.617V131.246H676.484L681.758 137.34C684.336 134.996 687.246 133.199 690.488 131.949C693.77 130.66 697.188 130.016 700.742 130.016C704.57 130.016 708.184 130.758 711.582 132.242C714.98 133.688 717.949 135.699 720.488 138.277C723.027 140.816 725.02 143.805 726.465 147.242C727.949 150.641 728.691 154.273 728.691 158.141V194H712.695V158.141C712.695 156.5 712.383 154.957 711.758 153.512C711.133 152.027 710.273 150.738 709.18 149.645C708.086 148.551 706.816 147.691 705.371 147.066C703.926 146.441 702.383 146.129 700.742 146.129C699.062 146.129 697.48 146.441 695.996 147.066C694.512 147.691 693.223 148.551 692.129 149.645C691.035 150.738 690.176 152.027 689.551 153.512C688.926 154.957 688.613 156.5 688.613 158.141V194ZM794.961 143.727L783.242 155.504C782.656 153.863 781.855 152.398 780.84 151.109C779.824 149.781 778.672 148.668 777.383 147.77C776.133 146.871 774.766 146.188 773.281 145.719C771.797 145.25 770.273 145.016 768.711 145.016C766.523 145.016 764.453 145.465 762.5 146.363C760.586 147.262 758.906 148.531 757.461 150.172C756.055 151.773 754.941 153.688 754.121 155.914C753.301 158.141 752.891 160.602 752.891 163.297C752.891 165.484 753.301 167.535 754.121 169.449C754.941 171.363 756.055 173.043 757.461 174.488C758.906 175.934 760.586 177.066 762.5 177.887C764.453 178.707 766.523 179.117 768.711 179.117C770.273 179.117 771.777 178.902 773.223 178.473C774.668 178.043 776.016 177.438 777.266 176.656C778.555 175.836 779.688 174.859 780.664 173.727C781.68 172.555 782.5 171.266 783.125 169.859L794.844 181.637C793.359 183.746 791.641 185.641 789.688 187.32C787.773 189 785.684 190.426 783.418 191.598C781.191 192.77 778.828 193.648 776.328 194.234C773.867 194.859 771.328 195.172 768.711 195.172C764.297 195.172 760.137 194.352 756.23 192.711C752.363 191.031 748.965 188.746 746.035 185.855C743.145 182.965 740.859 179.586 739.18 175.719C737.5 171.852 736.66 167.711 736.66 163.297C736.66 158.492 737.5 154 739.18 149.82C740.859 145.641 743.145 142.008 746.035 138.922C748.965 135.797 752.363 133.336 756.23 131.539C760.137 129.742 764.297 128.844 768.711 128.844C771.328 128.844 773.887 129.176 776.387 129.84C778.926 130.504 781.328 131.48 783.594 132.77C785.898 134.02 788.008 135.562 789.922 137.398C791.875 139.234 793.555 141.344 794.961 143.727ZM818.809 194H802.812V106.285H818.809V134C820.723 132.555 822.695 131.539 824.727 130.953C826.758 130.328 828.828 130.016 830.938 130.016C834.805 130.016 838.438 130.758 841.836 132.242C845.234 133.688 848.184 135.699 850.684 138.277C853.223 140.816 855.215 143.805 856.66 147.242C858.145 150.641 858.887 154.273 858.887 158.141V194H842.773V158.141H842.891C842.891 156.5 842.578 154.957 841.953 153.512C841.328 152.027 840.469 150.738 839.375 149.645C838.281 148.551 837.012 147.691 835.566 147.066C834.121 146.441 832.578 146.129 830.938 146.129C829.258 146.129 827.676 146.441 826.191 147.066C824.707 147.691 823.418 148.551 822.324 149.645C821.23 150.738 820.371 152.027 819.746 153.512C819.121 154.957 818.809 156.5 818.809 158.141V194ZM890 188.023C890 189.43 889.746 190.758 889.238 192.008C888.73 193.219 888.027 194.273 887.129 195.172C886.23 196.07 885.176 196.773 883.965 197.281C882.754 197.828 881.445 198.102 880.039 198.102C878.672 198.102 877.363 197.828 876.113 197.281C874.902 196.773 873.828 196.07 872.891 195.172C871.992 194.273 871.27 193.219 870.723 192.008C870.215 190.758 869.961 189.43 869.961 188.023C869.961 186.656 870.215 185.367 870.723 184.156C871.27 182.945 871.992 181.891 872.891 180.992C873.828 180.094 874.902 179.391 876.113 178.883C877.363 178.336 878.672 178.062 880.039 178.062C881.445 178.062 882.754 178.336 883.965 178.883C885.176 179.391 886.23 180.094 887.129 180.992C888.027 181.891 888.73 182.945 889.238 184.156C889.746 185.367 890 186.656 890 188.023Z" fill="#FF0000"/>
</svg>
